<svg xmlns="http://www.w3.org/2000/svg"  viewBox="0 0 32 32" width="32px" height="32px"><path d="M25.5,15c-3.032,0-5.5,2.468-5.5,5.5v0.735c-1.231-1.169-2-2.821-2-4.649V9c0-3.859-3.141-7-7-7	C8.99,2,7.181,2.857,5.903,4.218C4.899,2.875,3.301,2,1.5,2C0.672,2,0,2.672,0,3.5S0.672,5,1.5,5C2.879,5,4,6.121,4,7.5V9v3.5v12	C4,25.328,4.672,26,5.5,26S7,25.328,7,24.5v-12V9c0-2.206,1.794-4,4-4s4,1.794,4,4v7.586c0,3.442,1.857,6.459,4.622,8.101	C18.722,27.199,16.317,29,13.5,29c-0.828,0-1.5,0.672-1.5,1.5s0.672,1.5,1.5,1.5c4.084,0,7.574-2.59,8.914-6.214	c0.645,0.14,1.314,0.214,2,0.214h1.087C28.533,26,31,23.533,31,20.499C31,17.467,28.532,15,25.5,15z M25.501,23h-1.087	c-0.488,0-0.963-0.055-1.42-0.158C22.998,22.729,23,22.615,23,22.5v-2c0-1.379,1.121-2.5,2.5-2.5s2.5,1.121,2.5,2.5	S26.879,23,25.501,23z"/></svg>